<?xml version="1.0" standalone="no"?>
<!DOCTYPE svg PUBLIC "-//W3C//DTD SVG 20010904//EN"
 "http://www.w3.org/TR/2001/REC-SVG-20010904/DTD/svg10.dtd">
<svg version="1.0" xmlns="http://www.w3.org/2000/svg"
 width="700.000000pt" height="700.000000pt" viewBox="0 0 700.000000 700.000000"
 preserveAspectRatio="xMidYMid meet">
<metadata>
Created by potrace 1.11, written by Peter Selinger 2001-2013
</metadata>
<g transform="translate(0.000000,700.000000) scale(0.100000,-0.100000)"
fill="#000000" stroke="none">
<path d="M0 3500 l0 -3500 3500 0 3500 0 0 3500 0 3500 -3500 0 -3500 0 0
-3500z m3845 2735 c744 -99 1406 -485 1857 -1083 432 -572 626 -1307 533
-2018 -120 -917 -677 -1702 -1505 -2121 -301 -153 -646 -251 -994 -284 -157
-14 -487 -7 -634 15 -309 46 -596 138 -882 281 -75 37 -143 65 -160 65 -17 0
-53 -11 -80 -25 -245 -124 -596 -141 -1058 -51 -68 14 -126 27 -129 30 -3 3
39 60 93 128 228 288 321 491 312 682 -4 79 -6 84 -61 169 -193 303 -333 686
-394 1084 -25 159 -25 605 0 763 100 638 369 1167 814 1600 223 218 424 360
708 500 319 158 639 248 999 280 130 12 440 4 581 -15z"/>
<path d="M3253 6000 c-345 -34 -704 -146 -997 -312 -717 -406 -1193 -1130
-1277 -1946 -26 -250 -1 -606 60 -859 57 -232 187 -534 324 -751 51 -81 68
-118 77 -169 18 -94 8 -258 -23 -360 l-24 -82 31 -62 c54 -110 186 -229 254
-229 69 0 214 62 318 136 l61 43 49 -31 c301 -194 622 -318 984 -381 172 -29
607 -32 773 -4 269 46 501 119 732 232 1047 513 1602 1662 1355 2810 -37 168
-115 389 -199 560 -252 513 -645 905 -1156 1156 -246 120 -485 195 -757 234
-125 19 -459 27 -585 15z m510 -536 c671 -97 1247 -519 1537 -1127 359 -752
216 -1641 -359 -2240 -177 -184 -354 -314 -576 -423 -361 -177 -777 -244
-1169 -189 -189 26 -434 97 -551 159 -16 9 -33 16 -37 16 -13 0 -197 108 -264
155 -210 148 -430 370 -566 572 -102 151 -231 436 -264 584 -2 11 -6 27 -8 37
-36 150 -45 223 -53 412 -17 442 126 885 405 1259 72 97 245 275 342 354 291
235 650 388 1020 436 117 15 423 12 543 -5z"/>
<path d="M3235 5023 c-262 -25 -541 -155 -739 -342 -51 -49 -175 -196 -231
-275 -11 -15 -32 -42 -48 -59 -40 -46 -146 -201 -177 -261 -110 -205 -157
-423 -146 -671 16 -380 155 -712 401 -961 122 -124 261 -215 555 -365 78 -39
180 -86 205 -93 12 -4 42 -15 70 -26 11 -4 59 -18 107 -30 185 -46 420 -42
630 11 274 69 513 204 714 404 99 98 227 254 242 295 3 8 15 31 27 50 42 68
106 246 130 365 41 199 51 617 20 785 -53 280 -206 545 -410 709 -142 115
-227 159 -560 293 -55 22 -111 48 -124 57 -14 9 -25 15 -26 13 0 -4 -31 6 -70
23 -147 64 -382 96 -570 78z m730 -277 c184 -58 310 -200 351 -396 68 -320
-157 -673 -481 -755 -284 -72 -565 92 -640 375 -20 73 -19 218 1 299 56 225
253 427 474 485 88 23 207 20 295 -8z m-1257 -352 c47 -19 98 -67 125 -119 31
-58 31 -181 -1 -250 -27 -59 -91 -128 -147 -158 -61 -33 -165 -31 -226 5 -79
46 -119 123 -119 228 0 73 14 119 53 176 77 115 207 163 315 118z m1998 -662
c62 -32 111 -95 136 -175 61 -202 -76 -453 -281 -517 -76 -24 -111 -25 -177
-5 -64 19 -127 73 -162 139 -24 46 -27 61 -27 156 0 94 3 111 28 165 57 121
138 203 246 247 62 25 179 20 237 -10z m-1442 -675 c77 -35 140 -98 179 -176
30 -61 32 -72 32 -171 0 -101 -2 -108 -37 -183 -149 -312 -556 -374 -724 -110
-152 237 -4 576 288 658 77 22 192 14 262 -18z"/>
<path d="M3723 4585 c-171 -37 -312 -181 -359 -366 -31 -122 0 -265 77 -353
49 -56 145 -105 220 -113 200 -20 413 137 474 351 23 79 17 222 -13 288 -45
102 -141 176 -257 197 -69 13 -63 13 -142 -4z"/>
<path d="M2585 4275 c-113 -39 -162 -200 -85 -277 59 -58 166 -25 209 65 61
125 -12 250 -124 212z"/>
<path d="M4485 3636 c-170 -81 -253 -332 -149 -455 96 -115 294 -50 379 123
109 223 -32 426 -230 332z"/>
<path d="M3040 2931 c-86 -27 -175 -105 -210 -184 -55 -126 -21 -259 83 -318
60 -34 162 -34 232 1 181 88 245 321 122 444 -59 58 -149 81 -227 57z"/>
</g>
</svg>
