<svg viewBox="0 0 14 16" fill="none" xmlns="http://www.w3.org/2000/svg">
    <path d="M0.5 7.5C0.5 9.10919 1.58576 10.4648 3.06485 10.8738L3.50969 13.0981L3.69486 14.024L4.3566 13.3505L4.35662 13.3504L4.35663 13.3504L4.35676 13.3503L4.35755 13.3495L4.36108 13.3459L4.37574 13.3311L4.43387 13.2729C4.48484 13.222 4.55933 13.1483 4.65252 13.0577C4.83907 12.8764 5.09966 12.6281 5.39578 12.3607C5.95995 11.8511 6.61744 11.3048 7.13222 11H7.13322H7.1386H7.14399H7.14938H7.15478H7.16017H7.16558H7.17099H7.1764H7.18182H7.18723H7.19266H7.19809H7.20352H7.20896H7.2144H7.21984H7.22529H7.23074H7.23619H7.24165H7.24712H7.25258H7.25806H7.26353H7.26901H7.27449H7.27998H7.28547H7.29096H7.29646H7.30196H7.30747H7.31297H7.31849H7.324H7.32952H7.33505H7.34057H7.34611H7.35164H7.35718H7.36272H7.36826H7.37381H7.37937H7.38492H7.39048H7.39605H7.40161H7.40718H7.41276H7.41833H7.42391H7.4295H7.43508H7.44068H7.44627H7.45187H7.45747H7.46307H7.46868H7.47429H7.47991H7.48552H7.49115H7.49677H7.5024H7.50803H7.51366H7.5193H7.52494H7.53059H7.53623H7.54188H7.54754H7.55319H7.55885H7.56452H7.57018H7.57585H7.58153H7.5872H7.59288H7.59856H7.60425H7.60994H7.61563H7.62132H7.62702H7.63272H7.63842H7.64413H7.64984H7.65555H7.66126H7.66698H7.6727H7.67842H7.68415H7.68988H7.69561H7.70135H7.70708H7.71283H7.71857H7.72432H7.73006H7.73582H7.74157H7.74733H7.75309H7.75885H7.76462H7.77039H7.77616H7.78193H7.78771H7.79349H7.79927H7.80505H7.81084H7.81663H7.82242H7.82821H7.83401H7.83981H7.84561H7.85142H7.85722H7.86303H7.86885H7.87466H7.88048H7.8863H7.89212H7.89794H7.90377H7.9096H7.91543H7.92127H7.9271H7.93294H7.93878H7.94463H7.95047H7.95632H7.96217H7.96802H7.97388H7.97973H7.98559H7.99146H7.99732H8.00319H8.00905H8.01492H8.0208H8.02667H8.03255H8.03843H8.04431H8.05019H8.05608H8.06196H8.06785H8.07374H8.07964H8.08553H8.09143H8.09733H8.10323H8.10913H8.11504H8.12095H8.12685H8.13277H8.13868H8.14459H8.15051H8.15643H8.16235H8.16827H8.1742H8.18012H8.18605H8.19198H8.19791H8.20384H8.20978H8.21571H8.22165H8.22759H8.23353H8.23948H8.24542H8.25137H8.25732H8.26327H8.26922H8.27517H8.28113H8.28708H8.29304H8.299H8.30496H8.31093H8.31689H8.32286H8.32882H8.33479H8.34076H8.34673H8.35271H8.35868H8.36466H8.37063H8.37661H8.38259H8.38858H8.39456H8.40054H8.40653H8.41252H8.4185H8.42449H8.43048H8.43648H8.44247H8.44846H8.45446H8.46046H8.46646H8.47245H8.47846H8.48446H8.49046H8.49646H8.50247H8.50848H8.51448H8.52049H8.5265H8.53251H8.53853H8.54454H8.55055H8.55657H8.56258H8.5686H8.57462H8.58064H8.58666H8.59268H8.5987H8.60472H8.61075H8.61677H8.6228H8.62882H8.63485H8.64088H8.64691H8.65294H8.65897H8.665H8.67103H8.67706H8.6831H8.68913H8.69517H8.7012H8.70724H8.71327H8.71931H8.72535H8.73139H8.73743H8.74347H8.74951H8.75555H8.7616H8.76764H8.77368H8.77973H8.78577H8.79182H8.79786H8.80391H8.80995H8.816H8.82205H8.8281H8.83415H8.84019H8.84624H8.85229H8.85834H8.86439H8.87044H8.8765H8.88255H8.8886H8.89465H8.9007H8.90676H8.91281H8.91886H8.92492H8.93097H8.93703H8.94308H8.94913H8.95519H8.96124H8.9673H8.97335H8.97941H8.98546H8.99152H8.99758H9.00363H9.00969H9.01574H9.0218H9.02785H9.03391H9.03997H9.04602H9.05208H9.05814H9.06419H9.07025H9.0763H9.08236H9.08842H9.09447H9.10053H9.10658H9.11264H9.11869H9.12475H9.1308H9.13686H9.14291H9.14896H9.15502H9.16107H9.16713H9.17318H9.17923H9.18528H9.19134H9.19739H9.20344H9.20949H9.21554H9.22159H9.22764H9.23369H9.23974H9.24579H9.25184H9.25789H9.26394H9.26999H9.27603H9.28208H9.28812H9.29417H9.30021H9.30626H9.3123H9.31835H9.32439H9.33043H9.33647H9.34251H9.34855H9.35459H9.36063H9.36667H9.37271H9.37874H9.38478H9.39081H9.39685H9.40288H9.40892H9.41495H9.42098H9.42701H9.43304H9.43907H9.4451H9.45113H9.45715H9.46318H9.4692H9.47523H9.48125H9.48727H9.49329H9.49932H9.50533H9.51135H9.51737H9.52339H9.5294H9.53542H9.54143H9.54744H9.55345H9.55946H9.56547H9.57148H9.57749H9.58349H9.5895H9.5955H9.60151H9.60751H9.61351H9.61951H9.6255H9.6315H9.6375H9.64349H9.64948H9.65547H9.66146H9.66745H9.67344H9.67943H9.68541H9.69139H9.69738H9.70336H9.70934H9.71531H9.72129H9.72727H9.73324H9.73921H9.74518H9.75115H9.75712H9.76309H9.76905H9.77502H9.78098H9.78694H9.7929H9.79885H9.80481H9.81076H9.81672H9.82267H9.82862H9.83456H9.84051H9.84645H9.8524H9.85834H9.86428H9.87021H9.87615H9.88208H9.88802H9.89395H9.89987H9.9058H9.91173H9.91765H9.92357H9.92949H9.93541H9.94132H9.94724H9.95315H9.95906H9.96497H9.97087H9.97678H9.98268H9.98858H9.99448H10.0004C11.9335 11 13.5 9.43292 13.5 7.5V4C13.5 2.067 11.933 0.5 10 0.5H4C2.067 0.5 0.5 2.067 0.5 4V7.5Z"
          stroke="#838383"/>
    <path d="M5 9L5.5 7.5M9 9L8.5 7.5M8.5 7.5L8 6L7 3.5L6 6L5.5 7.5M8.5 7.5H5.5" stroke="#838383"/>
</svg>
